# xmcd CD database file
#
# Track frame offsets:
#	182
#	13382
#	29542
#	44142
#	60590
#	78985
#	93690
#	111307
#	126852
#	142182
#	155537
#	173010
#	186265
#	202052
#	221467
#	240502
#	254502
#	268977
#
# Disc length: 3798 seconds
#
# Revision: 0
# Processed by: cddbd v1.4PL0 Copyright (c) Steve Scherf et al.
# Submitted via: CDex 1.50
#
DISCID=1a0ed412
DTITLE=Various Artist - Number One Country Love Songs Disc 1
DYEAR=1900
DGENRE=Country
TTITLE0=Dolly Parton - Here You Come Again
TTITLE1=Alabama - Close Enough To Perfect
TTITLE2=Ronnie Milsap - There's No Gettin' Over Me
TTITLE3=Highway 101 - (Do You Love Me) Just Say Yes
TTITLE4=Steve Wariner - Some Fools Never Learn
TTITLE5=The Bellamy Brothers - If I Said You Had A Beautiful Body Would You Hold It Against Me?
TTITLE6=Eddie Rabbit and Crystal Gayle - You and I
TTITLE7=Earl Thomas Conley - Your Love's On The Line
TTITLE8=Frizzell and West - You're The Reason God Made Oklahoma
TTITLE9=Hank Williams, Jr. - I'm For Love
TTITLE10=Emmylou Harris - Together Again
TTITLE11=Conway Twitty - Slow Hand
TTITLE12=The Nitty Gritty Dirt Band - Modern Romance
TTITLE13=Restless Heart - I'll Still Be Loving You
TTITLE14=The Desrt Rose Band - I Still Believe In You
TTITLE15=Barbara Mandrell - (If Loving You Is Wrong) I Don't Want To Be Right
TTITLE16=Lee Greenwood - Dixie Road
TTITLE17=Randy Travis - For Ever and Ever, Amen
EXTD=
EXTT0=
EXTT1=
EXTT2=
EXTT3=
EXTT4=
EXTT5=
EXTT6=
EXTT7=
EXTT8=
EXTT9=
EXTT10=
EXTT11=
EXTT12=
EXTT13=
EXTT14=
EXTT15=
EXTT16=
EXTT17=
PLAYORDER=
